<svg width="224" height="70" viewBox="0 0 364 141" fill="none" xmlns="http://www.w3.org/2000/svg">
<g filter="url(#filter0_d_2_10)">
<path fill-rule="evenodd" clip-rule="evenodd" d="M68 124C101.137 124 128 97.1371 128 64C128 30.8629 101.137 4 68 4C34.8629 4 8 30.8629 8 64C8 97.1371 34.8629 124 68 124ZM68 94C84.5685 94 98 80.5685 98 64C98 47.4315 84.5685 34 68 34C51.4315 34 38 47.4315 38 64C38 80.5685 51.4315 94 68 94Z" fill="#A74848" fill-opacity="0.9" shape-rendering="crispEdges"/>
</g>
<g filter="url(#filter1_d_2_10)">
<path d="M119 52H153.5C160.404 52 166 57.5964 166 64.5V64.5C166 71.4036 160.404 77 153.5 77H119V52Z" fill="#A74848" fill-opacity="0.9" shape-rendering="crispEdges"/>
</g>
<g filter="url(#filter2_d_2_10)">
<rect x="45.9301" y="77.0754" width="47.186" height="18.9463" rx="9.47315" transform="rotate(-53.9585 45.9301 77.0754)" fill="#FF8F8F"/>
</g>
<g filter="url(#filter3_d_2_10)">
<path d="M134.88 117V89H140.96L153.72 104.8H149.88L162.64 89H168.72V117H162.12V107.88C162.12 105.667 162.173 103.587 162.28 101.64C162.387 99.6933 162.6 97.7067 162.92 95.68L163.56 97.92L153.12 110.2H150.48L139.92 97.84L140.68 95.68C141 97.7067 141.213 99.6933 141.32 101.64C141.427 103.587 141.48 105.667 141.48 107.88V117H134.88ZM194.977 117.4C192.017 117.4 189.417 116.933 187.177 116C184.964 115.04 183.244 113.733 182.017 112.08C180.791 110.427 180.177 108.56 180.177 106.48C180.177 104.747 180.551 103.2 181.297 101.84C182.044 100.453 183.057 99.28 184.337 98.32C185.644 97.36 187.137 96.6267 188.817 96.12C190.524 95.5867 192.311 95.32 194.177 95.32C196.071 95.32 197.817 95.5867 199.417 96.12C201.044 96.6267 202.457 97.36 203.657 98.32C204.884 99.2533 205.831 100.373 206.497 101.68C207.164 102.987 207.471 104.44 207.417 106.04L207.377 108H184.857L183.937 104H202.177L201.497 104.92V104.12C201.391 103.4 200.991 102.773 200.297 102.24C199.631 101.68 198.764 101.24 197.697 100.92C196.657 100.6 195.511 100.44 194.257 100.44C192.817 100.44 191.484 100.627 190.257 101C189.031 101.373 188.044 101.973 187.297 102.8C186.551 103.6 186.177 104.667 186.177 106C186.177 107.147 186.577 108.187 187.377 109.12C188.204 110.027 189.351 110.747 190.817 111.28C192.311 111.813 194.057 112.08 196.057 112.08C198.084 112.08 199.724 111.867 200.977 111.44C202.231 110.987 203.164 110.6 203.777 110.28L206.497 114.36C205.511 114.973 204.404 115.52 203.177 116C201.951 116.453 200.644 116.8 199.257 117.04C197.871 117.28 196.444 117.4 194.977 117.4ZM229.364 117.44C226.91 117.44 224.79 116.973 223.004 116.04C221.217 115.107 219.83 113.8 218.844 112.12C217.884 110.44 217.404 108.533 217.404 106.4C217.404 104.24 217.924 102.333 218.964 100.68C220.004 99 221.457 97.6933 223.324 96.76C225.19 95.8 227.35 95.32 229.804 95.32C231.27 95.32 232.617 95.48 233.844 95.8C235.097 96.12 236.19 96.5467 237.124 97.08C238.057 97.5867 238.804 98.16 239.364 98.8C239.924 99.44 240.244 100.08 240.324 100.72L238.804 101.08V87.4H245.244V117H239.284L238.924 111.36L240.204 111.88C240.124 112.52 239.777 113.173 239.164 113.84C238.577 114.507 237.79 115.107 236.804 115.64C235.817 116.173 234.684 116.613 233.404 116.96C232.15 117.28 230.804 117.44 229.364 117.44ZM231.364 111.88C232.91 111.88 234.257 111.653 235.404 111.2C236.55 110.72 237.43 110.067 238.044 109.24C238.657 108.413 238.964 107.467 238.964 106.4C238.964 105.307 238.657 104.36 238.044 103.56C237.43 102.733 236.55 102.093 235.404 101.64C234.257 101.16 232.91 100.92 231.364 100.92C229.844 100.92 228.51 101.16 227.364 101.64C226.244 102.093 225.364 102.733 224.724 103.56C224.084 104.36 223.764 105.307 223.764 106.4C223.764 107.467 224.084 108.413 224.724 109.24C225.364 110.067 226.244 110.72 227.364 111.2C228.51 111.653 229.844 111.88 231.364 111.88ZM260.859 117V95.76H267.259V117H260.859ZM264.019 91.16C262.819 91.16 261.885 90.88 261.219 90.32C260.552 89.7333 260.219 88.9067 260.219 87.84C260.219 86.88 260.552 86.0933 261.219 85.48C261.912 84.8667 262.845 84.56 264.019 84.56C265.219 84.56 266.152 84.8533 266.819 85.44C267.512 86 267.859 86.8 267.859 87.84C267.859 88.8267 267.512 89.6267 266.819 90.24C266.125 90.8533 265.192 91.16 264.019 91.16ZM295.092 117.4C292.372 117.4 289.945 116.92 287.812 115.96C285.705 115 284.052 113.693 282.852 112.04C281.652 110.36 281.052 108.467 281.052 106.36C281.052 104.227 281.638 102.333 282.812 100.68C284.012 99.0267 285.638 97.72 287.692 96.76C289.745 95.8 292.065 95.32 294.652 95.32C297.132 95.32 299.425 95.64 301.532 96.28C303.638 96.8933 305.412 97.7867 306.852 98.96L303.292 103.68C302.652 103.173 301.878 102.707 300.972 102.28C300.092 101.853 299.158 101.52 298.172 101.28C297.185 101.013 296.185 100.88 295.172 100.88C293.625 100.88 292.292 101.12 291.172 101.6C290.052 102.053 289.198 102.693 288.612 103.52C288.025 104.32 287.732 105.267 287.732 106.36C287.732 107.4 288.038 108.347 288.652 109.2C289.265 110.027 290.118 110.667 291.212 111.12C292.332 111.573 293.625 111.8 295.092 111.8C296.425 111.8 297.598 111.693 298.612 111.48C299.652 111.267 300.558 111 301.332 110.68C302.105 110.36 302.785 110.053 303.372 109.76L306.812 114.36C305.238 115.213 303.492 115.933 301.572 116.52C299.652 117.107 297.492 117.4 295.092 117.4Z" fill="black"/>
</g>
<defs>
<filter id="filter0_d_2_10" x="0" y="0" width="140" height="140" filterUnits="userSpaceOnUse" color-interpolation-filters="sRGB">
<feFlood flood-opacity="0" result="BackgroundImageFix"/>
<feColorMatrix in="SourceAlpha" type="matrix" values="0 0 0 0 0 0 0 0 0 0 0 0 0 0 0 0 0 0 127 0" result="hardAlpha"/>
<feOffset dx="2" dy="6"/>
<feGaussianBlur stdDeviation="5"/>
<feComposite in2="hardAlpha" operator="out"/>
<feColorMatrix type="matrix" values="0 0 0 0 0.4875 0 0 0 0 0.475312 0 0 0 0 0.475312 0 0 0 0.25 0"/>
<feBlend mode="normal" in2="BackgroundImageFix" result="effect1_dropShadow_2_10"/>
<feBlend mode="normal" in="SourceGraphic" in2="effect1_dropShadow_2_10" result="shape"/>
</filter>
<filter id="filter1_d_2_10" x="111" y="48" width="67" height="45" filterUnits="userSpaceOnUse" color-interpolation-filters="sRGB">
<feFlood flood-opacity="0" result="BackgroundImageFix"/>
<feColorMatrix in="SourceAlpha" type="matrix" values="0 0 0 0 0 0 0 0 0 0 0 0 0 0 0 0 0 0 127 0" result="hardAlpha"/>
<feOffset dx="2" dy="6"/>
<feGaussianBlur stdDeviation="5"/>
<feComposite in2="hardAlpha" operator="out"/>
<feColorMatrix type="matrix" values="0 0 0 0 0.4875 0 0 0 0 0.475312 0 0 0 0 0.475312 0 0 0 0.25 0"/>
<feBlend mode="normal" in2="BackgroundImageFix" result="effect1_dropShadow_2_10"/>
<feBlend mode="normal" in="SourceGraphic" in2="effect1_dropShadow_2_10" result="shape"/>
</filter>
<filter id="filter2_d_2_10" x="41.6899" y="38.6811" width="55.563" height="61.782" filterUnits="userSpaceOnUse" color-interpolation-filters="sRGB">
<feFlood flood-opacity="0" result="BackgroundImageFix"/>
<feColorMatrix in="SourceAlpha" type="matrix" values="0 0 0 0 0 0 0 0 0 0 0 0 0 0 0 0 0 0 127 0" result="hardAlpha"/>
<feOffset dx="2" dy="6"/>
<feGaussianBlur stdDeviation="5"/>
<feComposite in2="hardAlpha" operator="out"/>
<feColorMatrix type="matrix" values="0 0 0 0 0.4875 0 0 0 0 0.475312 0 0 0 0 0.475312 0 0 0 0.25 0"/>
<feBlend mode="normal" in2="BackgroundImageFix" result="effect1_dropShadow_2_10"/>
<feBlend mode="normal" in="SourceGraphic" in2="effect1_dropShadow_2_10" result="shape"/>
</filter>
<filter id="filter3_d_2_10" x="126.88" y="80.56" width="191.972" height="52.88" filterUnits="userSpaceOnUse" color-interpolation-filters="sRGB">
<feFlood flood-opacity="0" result="BackgroundImageFix"/>
<feColorMatrix in="SourceAlpha" type="matrix" values="0 0 0 0 0 0 0 0 0 0 0 0 0 0 0 0 0 0 127 0" result="hardAlpha"/>
<feOffset dx="2" dy="6"/>
<feGaussianBlur stdDeviation="5"/>
<feComposite in2="hardAlpha" operator="out"/>
<feColorMatrix type="matrix" values="0 0 0 0 0.4875 0 0 0 0 0.475312 0 0 0 0 0.475312 0 0 0 0.25 0"/>
<feBlend mode="normal" in2="BackgroundImageFix" result="effect1_dropShadow_2_10"/>
<feBlend mode="normal" in="SourceGraphic" in2="effect1_dropShadow_2_10" result="shape"/>
</filter>
</defs>
</svg>
